<svg width="76" height="76" viewBox="0 0 76 76" fill="none" xmlns="http://www.w3.org/2000/svg">
<rect x="0.5" y="0.387207" width="75" height="75" rx="15" fill="#1400FF"/>
<path d="M42.5 14.9705H24.5C23.3065 14.9705 22.1619 15.4534 21.318 16.313C20.4741 17.1725 20 18.3383 20 19.5539V56.2205C20 57.4361 20.4741 58.6019 21.318 59.4614C22.1619 60.321 23.3065 60.8039 24.5 60.8039H51.5C52.6935 60.8039 53.8381 60.321 54.682 59.4614C55.5259 58.6019 56 57.4361 56 56.2205V28.7205L42.5 14.9705Z" stroke="white" stroke-width="3" stroke-linecap="round" stroke-linejoin="round"/>
<path d="M42.5 14.9705V28.7205H56" stroke="white" stroke-width="3" stroke-linecap="round" stroke-linejoin="round"/>
<path d="M47 40.1789H29" stroke="white" stroke-width="3" stroke-linecap="round" stroke-linejoin="round"/>
<path d="M47 49.3455H29" stroke="white" stroke-width="3" stroke-linecap="round" stroke-linejoin="round"/>
<path d="M33.5 31.0122H31.25H29" stroke="white" stroke-width="3" stroke-linecap="round" stroke-linejoin="round"/>
</svg>
