<svg width="50" height="50" viewBox="0 0 50 50" fill="none" xmlns="http://www.w3.org/2000/svg">
<rect width="50" height="50" rx="15" fill="#F8F8FF"/>
<path d="M24.3739 25.268V23.756C24.8859 23.756 25.3419 23.692 25.7419 23.564C26.1419 23.42 26.4779 23.228 26.7499 22.988C27.0379 22.748 27.2539 22.468 27.3979 22.148C27.5579 21.812 27.6379 21.468 27.6379 21.116C27.6379 20.668 27.5499 20.276 27.3739 19.94C27.1979 19.588 26.9419 19.316 26.6059 19.124C26.2699 18.932 25.8539 18.836 25.3579 18.836C24.6219 18.836 24.0059 19.06 23.5099 19.508C23.0299 19.94 22.7899 20.492 22.7899 21.164H20.1259C20.1259 20.236 20.3419 19.42 20.7739 18.716C21.2219 18.012 21.8379 17.46 22.6219 17.06C23.4059 16.644 24.3099 16.436 25.3339 16.436C26.4219 16.436 27.3499 16.644 28.1179 17.06C28.8859 17.476 29.4699 18.028 29.8699 18.716C30.2859 19.388 30.4939 20.14 30.4939 20.972C30.4939 21.82 30.2299 22.572 29.7019 23.228C29.1739 23.884 28.4459 24.388 27.5179 24.74C26.6059 25.092 25.5579 25.268 24.3739 25.268ZM25.2139 33.788C24.3179 33.788 23.5099 33.66 22.7899 33.404C22.0699 33.132 21.4619 32.764 20.9659 32.3C20.4699 31.82 20.0859 31.276 19.8139 30.668C19.5419 30.044 19.4059 29.388 19.4059 28.7H22.2379C22.2379 29.244 22.3659 29.716 22.6219 30.116C22.8939 30.5 23.2619 30.804 23.7259 31.028C24.1899 31.236 24.7019 31.34 25.2619 31.34C25.8379 31.34 26.3339 31.236 26.7499 31.028C27.1819 30.82 27.5179 30.524 27.7579 30.14C27.9979 29.74 28.1179 29.26 28.1179 28.7C28.1179 28.252 28.0299 27.852 27.8539 27.5C27.6779 27.148 27.4219 26.852 27.0859 26.612C26.7659 26.372 26.3739 26.188 25.9099 26.06C25.4459 25.932 24.9339 25.868 24.3739 25.868V24.26C25.3019 24.26 26.1659 24.356 26.9659 24.548C27.7659 24.724 28.4619 25.004 29.0539 25.388C29.6619 25.756 30.1339 26.244 30.4699 26.852C30.8059 27.444 30.9739 28.164 30.9739 29.012C30.9739 29.956 30.7339 30.788 30.2539 31.508C29.7739 32.228 29.1019 32.788 28.2379 33.188C27.3739 33.588 26.3659 33.788 25.2139 33.788Z" fill="#1400FF"/>
</svg>
