<svg width="51" height="51" viewBox="0 0 51 51" fill="none" xmlns="http://www.w3.org/2000/svg">
<rect x="0.5" y="0.387207" width="50" height="50" rx="15" fill="#F8F8FF"/>
<path d="M18.7378 33.8872L26.5138 25.7032C26.9138 25.2712 27.2578 24.8552 27.5458 24.4552C27.8338 24.0552 28.0498 23.6552 28.1938 23.2552C28.3378 22.8552 28.4098 22.4312 28.4098 21.9832C28.4098 21.6632 28.3458 21.3512 28.2178 21.0472C28.1058 20.7272 27.9218 20.4392 27.6658 20.1832C27.4258 19.9272 27.1298 19.7272 26.7778 19.5832C26.4258 19.4232 26.0178 19.3432 25.5538 19.3432C24.9138 19.3432 24.3618 19.4952 23.8978 19.7992C23.4338 20.0872 23.0738 20.5112 22.8178 21.0712C22.5778 21.6312 22.4578 22.2792 22.4578 23.0152H19.6498C19.6498 21.8152 19.8738 20.7512 20.3218 19.8232C20.7858 18.8792 21.4578 18.1432 22.3378 17.6152C23.2338 17.0712 24.3218 16.7992 25.6018 16.7992C26.5778 16.7992 27.4258 16.9592 28.1458 17.2792C28.8658 17.5832 29.4578 17.9832 29.9218 18.4792C30.4018 18.9752 30.7538 19.5192 30.9778 20.1112C31.2178 20.7032 31.3378 21.2792 31.3378 21.8392C31.3378 22.7192 31.1218 23.5672 30.6898 24.3832C30.2738 25.1992 29.7218 25.9272 29.0338 26.5672L24.2578 31.2472H31.5538V33.8872H18.7378Z" fill="#1400FF"/>
</svg>
