<svg width="50" height="50" viewBox="0 0 50 50" fill="none" xmlns="http://www.w3.org/2000/svg">
<rect width="50" height="50" rx="15" fill="#F8F8FF"/>
<path d="M21.6006 27.836C21.6006 28.524 21.7446 29.132 22.0326 29.66C22.3366 30.172 22.7446 30.58 23.2566 30.884C23.7686 31.172 24.3526 31.316 25.0086 31.316C25.6486 31.316 26.2246 31.172 26.7366 30.884C27.2486 30.58 27.6486 30.172 27.9366 29.66C28.2406 29.132 28.3926 28.524 28.3926 27.836C28.3926 27.148 28.2406 26.54 27.9366 26.012C27.6486 25.468 27.2486 25.052 26.7366 24.764C26.2246 24.46 25.6486 24.308 25.0086 24.308C24.3526 24.308 23.7686 24.46 23.2566 24.764C22.7446 25.052 22.3366 25.468 22.0326 26.012C21.7446 26.54 21.6006 27.148 21.6006 27.836ZM25.5846 16.724H29.1846L23.8566 23.324L23.4486 23.396C23.8166 22.98 24.2086 22.708 24.6246 22.58C25.0406 22.452 25.5366 22.388 26.1126 22.388C26.7686 22.388 27.4006 22.516 28.0086 22.772C28.6166 23.028 29.1526 23.404 29.6166 23.9C30.0966 24.38 30.4726 24.956 30.7446 25.628C31.0166 26.3 31.1526 27.036 31.1526 27.836C31.1526 29.068 30.8806 30.132 30.3366 31.028C29.7926 31.924 29.0566 32.612 28.1286 33.092C27.2006 33.556 26.1606 33.788 25.0086 33.788C23.8566 33.788 22.8166 33.556 21.8886 33.092C20.9606 32.612 20.2166 31.924 19.6566 31.028C19.1126 30.132 18.8406 29.068 18.8406 27.836C18.8406 27.052 18.9686 26.332 19.2246 25.676C19.4966 25.02 19.8406 24.42 20.2566 23.876L25.5846 16.724Z" fill="#1400FF"/>
</svg>
