<svg width="50" height="50" viewBox="0 0 50 50" fill="none" xmlns="http://www.w3.org/2000/svg">
<rect width="50" height="50" rx="15" fill="#F8F8FF"/>
<path d="M31.1956 28.028C31.1956 29.004 31.0276 29.852 30.6916 30.572C30.3556 31.292 29.8916 31.892 29.2996 32.372C28.7076 32.836 28.0356 33.188 27.2836 33.428C26.5476 33.652 25.7716 33.764 24.9556 33.764C23.9316 33.764 23.0276 33.628 22.2436 33.356C21.4596 33.084 20.7796 32.724 20.2036 32.276C19.6276 31.812 19.1236 31.316 18.6916 30.788L20.3476 28.748C20.6836 29.18 21.0756 29.58 21.5236 29.948C21.9876 30.3 22.4836 30.588 23.0116 30.812C23.5396 31.02 24.0676 31.124 24.5956 31.124C25.3636 31.124 26.0116 30.996 26.5396 30.74C27.0676 30.484 27.4676 30.108 27.7396 29.612C28.0276 29.116 28.1716 28.532 28.1716 27.86C28.1716 27.172 28.0116 26.588 27.6916 26.108C27.3716 25.628 26.9396 25.26 26.3956 25.004C25.8516 24.748 25.2516 24.62 24.5956 24.62C24.1156 24.62 23.6356 24.66 23.1556 24.74C22.6916 24.804 22.2116 24.932 21.7156 25.124C21.2356 25.316 20.7076 25.588 20.1316 25.94L22.4116 16.7H31.0276V19.196H24.5476L23.4916 23.036C23.9076 22.828 24.3396 22.676 24.7876 22.58C25.2356 22.484 25.6916 22.436 26.1556 22.436C27.0836 22.436 27.9316 22.668 28.6996 23.132C29.4676 23.596 30.0756 24.244 30.5236 25.076C30.9716 25.908 31.1956 26.892 31.1956 28.028Z" fill="#1400FF"/>
</svg>
