<svg width="202" height="27" viewBox="0 0 202 27" fill="none" xmlns="http://www.w3.org/2000/svg">
<path d="M2.41301 1.18006C1.75056 1.18006 1.13543 1.46937 0.709565 1.90334C-0.142155 2.77129 -0.378743 4.3143 0.898837 5.66443C1.23006 5.80909 1.51397 5.90553 1.79788 6.05019H15.2834C15.52 6.05019 15.8039 6.00197 16.0405 5.90553L19.3528 4.70005C19.826 4.5554 20.1099 4.12142 20.1099 3.59101V2.2891C20.1099 1.66225 19.5894 1.13184 18.9742 1.13184H2.41301V1.18006Z" fill="#0C064D"/>
<path d="M4.7791 19.6479V19.7443C4.7791 20.3712 5.29959 20.9016 5.91472 20.9016H18.9744C19.5896 20.9016 20.1101 21.432 20.1101 22.0588V24.6627C20.1101 25.2895 19.5896 25.8199 18.9744 25.8199H1.13563C0.520496 25.8199 0 25.2895 0 24.6627V17.0441C0 16.0797 0.520496 15.2599 1.37222 14.826L16.372 7.54489H16.4193L18.5486 6.67695C19.3057 6.38763 20.1101 6.91805 20.1101 7.73777V9.90763C20.1101 10.872 19.5896 11.74 18.7378 12.1257L5.39423 18.5871C5.01569 18.7799 4.7791 19.1657 4.7791 19.6479Z" fill="#0C064D"/>
<path d="M39.5574 1.18018H29.9519C29.4314 1.18018 29.0055 1.51771 28.8636 1.9999L22.5703 24.3253C22.381 25.0486 22.9015 25.8201 23.6586 25.8201H26.8289C27.3494 25.8201 27.7753 25.4826 27.9172 24.9522L29.6207 18.7319C29.7626 18.2497 30.1885 17.864 30.709 17.864H38.8003C39.3208 17.864 39.7467 18.2015 39.8886 18.6837L41.6394 24.904C41.7813 25.3862 42.2072 25.7237 42.7277 25.7237H45.898C46.6551 25.7237 47.1756 25.0004 46.9863 24.2289L40.6457 1.90346C40.5037 1.51771 40.0779 1.18018 39.5574 1.18018ZM32.6963 12.9939C31.9392 12.9939 31.4187 12.2706 31.608 11.5473L33.9739 3.0125C34.0685 2.72319 34.3051 2.53031 34.589 2.53031H35.0149C35.2988 2.53031 35.5354 2.72319 35.63 3.0125L37.9959 11.5473C38.1852 12.2706 37.6647 12.9939 36.9076 12.9939H32.6963Z" fill="#0C064D"/>
<path d="M66.2444 4.89304V2.33743C66.2444 1.71058 65.7239 1.18018 65.1088 1.18018H50.9135C50.2983 1.18018 49.7778 1.71058 49.7778 2.33743V4.89304C49.7778 5.51989 50.2983 6.05031 50.9135 6.05031H54.1311C54.7462 6.05031 55.2667 6.58071 55.2667 7.20756V19.7445C55.2667 20.3714 54.7462 20.9018 54.1311 20.9018H50.9135C50.2983 20.9018 49.7778 21.4322 49.7778 22.059V24.6629C49.7778 25.2897 50.2983 25.8201 50.9135 25.8201H65.1088C65.7239 25.8201 66.2444 25.2897 66.2444 24.6629V22.059C66.2444 21.4322 65.7239 20.9018 65.1088 20.9018H61.8912C61.2761 20.9018 60.7556 20.3714 60.7556 19.7445V7.20756C60.7556 6.58071 61.2761 6.05031 61.8912 6.05031H65.1088C65.7712 6.05031 66.2444 5.51989 66.2444 4.89304Z" fill="#0C064D"/>
<path d="M99.367 2.33743V24.6629C99.367 25.2897 98.8465 25.8201 98.2314 25.8201H95.0138C94.3987 25.8201 93.8782 25.2897 93.8782 24.6629V6.43605C93.8782 6.33961 93.8782 6.2914 93.8782 6.19496C93.3103 6.19496 92.8372 6.58071 92.7425 7.15934L89.9508 23.7467C89.7615 24.904 88.7678 25.7719 87.5849 25.7719H81.0077C79.8248 25.7719 78.8311 24.904 78.6418 23.7467L75.8501 7.15934C75.7554 6.58071 75.2823 6.19496 74.7145 6.19496C74.7145 6.2914 74.7145 6.33961 74.7145 6.43605V24.6629C74.7145 25.2897 74.194 25.8201 73.5788 25.8201H70.3612C69.7461 25.8201 69.2256 25.2897 69.2256 24.6629V2.33743C69.2256 1.71058 69.7461 1.18018 70.3612 1.18018H77.9794C79.1623 1.18018 80.156 2.04812 80.3453 3.2536L83.4682 23.8431C83.5156 24.1807 83.7995 24.3736 84.0834 24.3736H84.3673C84.6512 24.3736 84.9351 24.1325 84.9824 23.8431L88.1054 3.2536C88.2947 2.04812 89.2883 1.18018 90.4713 1.18018H98.0894C98.8465 1.18018 99.367 1.66236 99.367 2.33743Z" fill="#0C064D"/>
<path d="M123.405 4.41074C121.181 1.99978 118.2 0.842529 114.462 0.842529C110.724 0.842529 107.743 2.048 105.472 4.41074C103.248 6.82169 102.112 9.81128 102.112 13.4759C102.112 17.1406 103.2 20.1784 105.472 22.5893C107.696 25.0003 110.677 26.1575 114.462 26.1575C118.2 26.1575 121.181 24.9521 123.405 22.5893C125.629 20.2266 126.765 17.1888 126.765 13.4759C126.717 9.81128 125.629 6.77347 123.405 4.41074ZM119.525 19.1658C118.342 20.5641 116.686 21.2392 114.415 21.2392C112.191 21.2392 110.487 20.5641 109.304 19.1658C108.121 17.7674 107.554 15.8869 107.554 13.4759C107.554 11.065 108.121 9.18443 109.304 7.78607C110.487 6.38772 112.191 5.71265 114.415 5.71265C116.639 5.71265 118.342 6.38772 119.525 7.78607C120.661 9.13621 121.276 11.065 121.276 13.4759C121.276 15.8869 120.661 17.7674 119.525 19.1658Z" fill="#0C064D"/>
<path d="M148.577 2.33721V3.49447C148.577 3.97666 148.293 4.36241 147.868 4.55529L145.028 5.76076L144.792 5.8572L144.271 6.05008C144.177 6.0983 144.035 6.0983 143.893 6.0983H129.556C128.94 6.0983 128.42 5.56789 128.42 4.94104V2.38543C128.42 1.75858 128.94 1.22817 129.556 1.22817H147.394C148.057 1.17995 148.577 1.66214 148.577 2.33721Z" fill="#0C064D"/>
<path d="M148.577 7.64134V10.7274C148.577 11.1613 148.341 11.5953 147.915 11.7882L133.861 18.5871C133.483 18.78 133.199 19.1657 133.199 19.6479V19.7443C133.199 20.3712 133.72 20.9016 134.335 20.9016H147.394C148.009 20.9016 148.53 21.432 148.53 22.0588V24.6627C148.53 25.2895 148.009 25.8199 147.394 25.8199H129.556C128.94 25.8199 128.42 25.2895 128.42 24.6627V16.2243C128.42 15.7904 128.657 15.3564 129.082 15.1635L146.921 6.58053C147.678 6.24299 148.577 6.7734 148.577 7.64134Z" fill="#0C064D"/>
<path d="M178.955 5.61621H180.09C180.564 5.61621 180.942 5.90553 181.131 6.3395L182.314 9.23264L182.409 9.47374L182.598 10.0042C182.646 10.1006 182.646 10.2452 182.646 10.3899V25.0003C182.646 25.6271 182.125 26.1575 181.51 26.1575H179.002C178.387 26.1575 177.867 25.6271 177.867 25.0003V6.82169C177.819 6.14662 178.292 5.61621 178.955 5.61621Z" fill="#0C064D"/>
<path d="M182.694 0.938965H185.77C186.243 0.938965 186.622 1.22828 186.811 1.61403L194.95 20.5159C195.139 20.9499 195.517 21.191 195.991 21.191H196.038C196.653 21.191 197.174 20.6606 197.174 20.0337V6.72525C197.174 6.09841 197.694 5.568 198.309 5.568H200.864C201.479 5.568 202 6.09841 202 6.72525V24.9039C202 25.5307 201.479 26.0611 200.864 26.0611H192.631C192.205 26.0611 191.779 25.7718 191.59 25.386L181.701 2.5302C181.322 1.80691 181.843 0.938965 182.694 0.938965Z" fill="#0C064D"/>
<path d="M171.574 4.41074C169.35 1.99978 166.369 0.842529 162.631 0.842529C158.893 0.842529 155.912 2.048 153.641 4.41074C151.417 6.82169 150.281 9.81128 150.281 13.4759C150.281 17.1406 151.417 20.1784 153.641 22.5893C155.865 25.0003 158.846 26.1575 162.631 26.1575C166.369 26.1575 169.35 24.9521 171.574 22.5893C173.798 20.2266 174.934 17.1888 174.934 13.4759C174.886 9.81128 173.798 6.77347 171.574 4.41074ZM167.694 19.1658C166.559 20.5641 164.855 21.2392 162.584 21.2392C160.36 21.2392 158.656 20.5641 157.474 19.1658C156.291 17.7674 155.723 15.8869 155.723 13.4759C155.723 11.065 156.291 9.18443 157.474 7.78607C158.656 6.38772 160.36 5.71265 162.584 5.71265C164.808 5.71265 166.511 6.38772 167.694 7.78607C168.83 9.13621 169.445 11.065 169.445 13.4759C169.445 15.8869 168.83 17.7674 167.694 19.1658Z" fill="#0C064D"/>
</svg>
