<svg width="1338" height="168" viewBox="0 0 1338 168" fill="none" xmlns="http://www.w3.org/2000/svg">
<path d="M16.4739 2.23372C12.0893 2.23372 8.01781 4.14865 5.19912 7.02103C-0.438269 12.7658 -2.0042 22.9787 6.45187 31.915C8.64419 32.8725 10.5233 33.5108 12.4025 34.4683H101.661C103.227 34.4683 105.106 34.1491 106.672 33.5108L128.595 25.5319C131.727 24.5745 133.606 21.7021 133.606 18.1914V9.57427C133.606 5.42527 130.161 1.91455 126.09 1.91455H16.4739V2.23372Z" fill="white"/>
<path d="M32.132 124.47V125.108C32.132 129.257 35.5771 132.768 39.6485 132.768H126.088C130.16 132.768 133.605 136.278 133.605 140.427V157.662C133.605 161.811 130.16 165.321 126.088 165.321H8.01652C3.94507 165.321 0.5 161.811 0.5 157.662V107.235C0.5 100.852 3.94507 95.4268 9.58246 92.5544L108.863 44.3622H109.176L123.27 38.6174C128.281 36.7025 133.605 40.2132 133.605 45.6388V60.0007C133.605 66.3838 130.16 72.1285 124.522 74.6818L36.2034 117.448C33.6979 118.725 32.132 121.278 32.132 124.47Z" fill="white"/>
<path d="M262.324 2.23364H198.747C195.302 2.23364 192.483 4.46771 191.544 7.65924L149.89 155.427C148.637 160.215 152.082 165.321 157.093 165.321H178.077C181.522 165.321 184.341 163.087 185.28 159.576L196.555 118.406C197.494 115.214 200.313 112.661 203.758 112.661H257.313C260.758 112.661 263.577 114.895 264.517 118.086L276.105 159.257C277.044 162.449 279.863 164.683 283.308 164.683H304.292C309.303 164.683 312.748 159.895 311.495 154.789L269.528 7.02095C268.588 4.46772 265.769 2.23364 262.324 2.23364ZM216.912 80.4263C211.901 80.4263 208.456 75.639 209.709 70.8517L225.368 14.3615C225.995 12.4466 227.561 11.17 229.44 11.17H232.258C234.137 11.17 235.703 12.4466 236.33 14.3615L251.989 70.8517C253.242 75.639 249.797 80.4263 244.786 80.4263H216.912Z" fill="white"/>
<path d="M438.963 26.8085V9.89331C438.963 5.74431 435.518 2.23364 431.446 2.23364H337.49C333.418 2.23364 329.973 5.74431 329.973 9.89331V26.8085C329.973 30.9575 333.418 34.4682 337.49 34.4682H358.786C362.858 34.4682 366.303 37.9788 366.303 42.1278V125.108C366.303 129.257 362.858 132.767 358.786 132.767H337.49C333.418 132.767 329.973 136.278 329.973 140.427V157.661C329.973 161.81 333.418 165.321 337.49 165.321H431.446C435.518 165.321 438.963 161.81 438.963 157.661V140.427C438.963 136.278 435.518 132.767 431.446 132.767H410.149C406.078 132.767 402.633 129.257 402.633 125.108V42.1278C402.633 37.9788 406.078 34.4682 410.149 34.4682H431.446C435.831 34.4682 438.963 30.9575 438.963 26.8085Z" fill="white"/>
<path d="M658.196 9.89331V157.661C658.196 161.81 654.751 165.321 650.679 165.321H629.383C625.311 165.321 621.866 161.81 621.866 157.661V37.0214C621.866 36.3831 621.866 36.0639 621.866 35.4256C618.108 35.4256 614.976 37.9788 614.35 41.8087L595.871 151.597C594.619 159.257 588.042 165.002 580.212 165.002H536.679C528.849 165.002 522.272 159.257 521.02 151.597L502.541 41.8087C501.915 37.9788 498.783 35.4256 495.025 35.4256C495.025 36.0639 495.025 36.3831 495.025 37.0214V157.661C495.025 161.81 491.58 165.321 487.508 165.321H466.212C462.14 165.321 458.695 161.81 458.695 157.661V9.89331C458.695 5.74431 462.14 2.23364 466.212 2.23364H516.635C524.465 2.23364 531.042 7.97842 532.294 15.9573L552.965 152.236C553.278 154.47 555.157 155.747 557.036 155.747H558.915C560.794 155.747 562.674 154.151 562.987 152.236L583.657 15.9573C584.91 7.97842 591.487 2.23364 599.317 2.23364H649.74C654.751 2.23364 658.196 5.42516 658.196 9.89331Z" fill="white"/>
<path d="M817.296 23.6173C802.576 7.65967 782.845 0 758.103 0C733.361 0 713.63 7.97882 698.597 23.6173C683.877 39.575 676.361 59.3626 676.361 83.6182C676.361 107.874 683.564 127.981 698.597 143.938C713.317 159.896 733.048 167.556 758.103 167.556C782.845 167.556 802.576 159.577 817.296 143.938C832.015 128.3 839.532 108.193 839.532 83.6182C839.219 59.3626 832.015 39.2559 817.296 23.6173ZM791.614 121.278C783.784 130.534 772.823 135.002 757.79 135.002C743.07 135.002 731.795 130.534 723.965 121.278C716.136 112.023 712.377 99.5759 712.377 83.6182C712.377 67.6606 716.136 55.2136 723.965 45.9581C731.795 36.7026 743.07 32.2345 757.79 32.2345C772.51 32.2345 783.784 36.7026 791.614 45.9581C799.131 54.8944 803.202 67.6606 803.202 83.6182C803.202 99.5759 799.131 112.023 791.614 121.278Z" fill="white"/>
<path d="M983.91 9.89396V17.5537C983.91 20.7452 982.031 23.2984 979.212 24.575L960.421 32.5539L958.855 33.1922L955.41 34.4688C954.784 34.788 953.844 34.788 952.905 34.788H858.008C853.937 34.788 850.492 31.2773 850.492 27.1283V10.2131C850.492 6.06414 853.937 2.55347 858.008 2.55347H976.08C980.465 2.23432 983.91 5.42581 983.91 9.89396Z" fill="white"/>
<path d="M983.91 45.0005V65.4263C983.91 68.2987 982.344 71.1711 979.525 72.4477L886.509 117.448C884.003 118.725 882.124 121.278 882.124 124.47V125.108C882.124 129.257 885.569 132.768 889.64 132.768H976.08C980.152 132.768 983.597 136.278 983.597 140.427V157.662C983.597 161.811 980.152 165.321 976.08 165.321H858.008C853.937 165.321 850.492 161.811 850.492 157.662V101.81C850.492 98.9374 852.058 96.0651 854.877 94.7885L972.949 37.9791C977.96 35.745 983.91 39.2557 983.91 45.0005Z" fill="white"/>
<path d="M1184.98 31.5967H1192.5C1195.63 31.5967 1198.13 33.5116 1199.39 36.384L1207.22 55.5332L1207.84 57.129L1209.09 60.6397C1209.41 61.278 1209.41 62.2355 1209.41 63.1929V159.896C1209.41 164.045 1205.96 167.556 1201.89 167.556H1185.29C1181.22 167.556 1177.78 164.045 1177.78 159.896V39.5755C1177.46 35.1074 1180.59 31.5967 1184.98 31.5967Z" fill="white"/>
<path d="M1209.72 0.638184H1230.08C1233.21 0.638184 1235.71 2.55309 1236.97 5.10631L1290.84 130.215C1292.09 133.087 1294.59 134.683 1297.73 134.683H1298.04C1302.11 134.683 1305.55 131.172 1305.55 127.023V38.9366C1305.55 34.7876 1309 31.277 1313.07 31.277H1329.98C1334.06 31.277 1337.5 34.7876 1337.5 38.9366V159.258C1337.5 163.407 1334.06 166.917 1329.98 166.917H1275.49C1272.67 166.917 1269.85 165.002 1268.6 162.449L1203.14 11.1703C1200.64 6.38296 1204.08 0.638184 1209.72 0.638184Z" fill="white"/>
<path d="M1136.12 23.6173C1121.4 7.65967 1101.67 0 1076.93 0C1052.19 0 1032.46 7.97882 1017.42 23.6173C1002.7 39.575 995.187 59.3626 995.187 83.6182C995.187 107.874 1002.7 127.981 1017.42 143.938C1032.14 159.896 1051.87 167.556 1076.93 167.556C1101.67 167.556 1121.4 159.577 1136.12 143.938C1150.84 128.3 1158.36 108.193 1158.36 83.6182C1158.04 59.3626 1150.84 39.2559 1136.12 23.6173ZM1110.44 121.278C1102.92 130.534 1091.65 135.002 1076.62 135.002C1061.9 135.002 1050.62 130.534 1042.79 121.278C1034.96 112.023 1031.2 99.5759 1031.2 83.6182C1031.2 67.6606 1034.96 55.2136 1042.79 45.9581C1050.62 36.7026 1061.9 32.2345 1076.62 32.2345C1091.34 32.2345 1102.61 36.7026 1110.44 45.9581C1117.96 54.8944 1122.03 67.6606 1122.03 83.6182C1122.03 99.5759 1117.96 112.023 1110.44 121.278Z" fill="white"/>
</svg>
