<svg width="50" height="50" viewBox="0 0 50 50" fill="none" xmlns="http://www.w3.org/2000/svg">
<rect width="50" height="50" rx="15" fill="white"/>
<path d="M36.25 22.5C36.25 31.25 25 38.75 25 38.75C25 38.75 13.75 31.25 13.75 22.5C13.75 19.5163 14.9353 16.6548 17.045 14.545C19.1548 12.4353 22.0163 11.25 25 11.25C27.9837 11.25 30.8452 12.4353 32.955 14.545C35.0647 16.6548 36.25 19.5163 36.25 22.5Z" stroke="#0C064D" stroke-width="2" stroke-linecap="round" stroke-linejoin="round"/>
<path d="M25 26.25C27.0711 26.25 28.75 24.5711 28.75 22.5C28.75 20.4289 27.0711 18.75 25 18.75C22.9289 18.75 21.25 20.4289 21.25 22.5C21.25 24.5711 22.9289 26.25 25 26.25Z" stroke="#0C064D" stroke-width="2" stroke-linecap="round" stroke-linejoin="round"/>
</svg>
